<svg xmlns="http://www.w3.org/2000/svg" viewBox="0 0 87.38 83.26"><defs><style>.cls-1{fill:#fff;}.cls-2{fill:#00b900;}</style></defs><g id="レイヤー_2" data-name="レイヤー 2"><g id="LINE_LOGO" data-name="LINE LOGO"><g id="FULL_COLOR_ICON" data-name="FULL COLOR ICON"><g id="TYPE_A" data-name="TYPE A"><path class="cls-1" d="M87.38,35.46C87.38,15.91,67.78,0,43.69,0S0,15.91,0,35.46c0,17.52,15.54,32.2,36.54,35,1.42.3,3.36.93,3.85,2.15a8.94,8.94,0,0,1,.14,4l-.62,3.74c-.19,1.11-.88,4.32,3.78,2.36S68.85,67.82,78,57.27h0c6.33-6.94,9.36-14,9.36-21.81"/><path class="cls-2" d="M34.81,26H31.75a.85.85,0,0,0-.85.85v19a.85.85,0,0,0,.85.84h3.06a.85.85,0,0,0,.85-.84v-19a.85.85,0,0,0-.85-.85"/><path class="cls-2" d="M55.91,26H52.84a.85.85,0,0,0-.85.85V38.17L43.27,26.39l-.07-.09h0l-.06-.05h0l-.05,0,0,0,0,0h0l0,0h0l-.05,0h0l-.05,0H39.5a.86.86,0,0,0-.86.85v19a.86.86,0,0,0,.86.84h3.06a.85.85,0,0,0,.85-.84V34.59l8.74,11.8a1,1,0,0,0,.21.21h0l.05,0,0,0,0,0h.06l.06,0h0l.21,0h3.07a.85.85,0,0,0,.85-.84v-19a.85.85,0,0,0-.85-.85"/><path class="cls-2" d="M27.43,42H19.1V26.86a.85.85,0,0,0-.85-.85H15.18a.85.85,0,0,0-.85.85v19h0a.83.83,0,0,0,.24.59v0h0a.89.89,0,0,0,.59.23H27.43a.85.85,0,0,0,.85-.85V42.83a.85.85,0,0,0-.85-.85"/><path class="cls-2" d="M72.83,30.78a.86.86,0,0,0,.85-.86V26.86a.85.85,0,0,0-.85-.85H60.59a.83.83,0,0,0-.59.24h0a.87.87,0,0,0-.23.59h0v19h0a.83.83,0,0,0,.24.58v0h0a.87.87,0,0,0,.59.23H72.83a.85.85,0,0,0,.85-.85V42.83a.85.85,0,0,0-.85-.85H64.5V38.76h8.33a.85.85,0,0,0,.85-.85V34.84a.85.85,0,0,0-.85-.85H64.5V30.78Z"/></g></g></g></g></svg>